<?xml version="1.0" standalone="no"?>
<!DOCTYPE svg PUBLIC "-//W3C//DTD SVG 20010904//EN"
 "http://www.w3.org/TR/2001/REC-SVG-20010904/DTD/svg10.dtd">
<svg version="1.0" xmlns="http://www.w3.org/2000/svg"
 width="512.000000pt" height="512.000000pt" viewBox="0 0 512.000000 512.000000"
 preserveAspectRatio="xMidYMid meet">

<g transform="translate(0.000000,512.000000) scale(0.100000,-0.100000)"
fill="#000000" stroke="none">
<path d="M2375 5110 c-60 -5 -139 -13 -175 -19 -36 -6 -69 -11 -74 -11 -9 0
-1 -219 10 -278 6 -32 6 -32 -19 -21 -14 6 -33 9 -43 5 -39 -15 12 -167 69
-210 41 -30 66 -85 83 -184 18 -101 69 -219 109 -250 l28 -22 -5 -132 c-6
-159 -19 -198 -75 -226 -37 -19 -169 -52 -283 -71 -36 -5 173 -9 600 -9 l655
0 -100 18 c-55 10 -129 25 -165 35 -128 33 -141 55 -148 248 l-5 138 60 57 60
57 15 133 c16 131 16 134 62 203 68 102 110 226 86 254 -16 20 -45 4 -70 -38
-25 -40 -25 -36 0 91 17 87 26 192 18 192 -2 0 -62 9 -135 19 -156 23 -405 33
-558 21z"/>
<path d="M971 1768 c-6 -29 -13 -75 -17 -103 -4 -27 -31 -117 -61 -200 -66
-179 -125 -406 -149 -569 l-18 -119 81 -77 c44 -42 121 -108 171 -148 l90 -71
20 52 c11 29 36 90 55 137 44 105 70 194 152 517 45 178 85 306 135 436 38
100 70 186 70 190 0 4 -117 7 -259 7 l-260 0 -10 -52z"/>
<path d="M1780 1812 c0 -5 23 -78 52 -163 47 -142 52 -162 52 -251 l1 -96 -41
-59 c-54 -76 -187 -342 -218 -436 -37 -108 -57 -243 -64 -430 -6 -147 -5 -170
8 -177 41 -22 327 -112 425 -134 197 -44 335 -59 555 -60 219 0 332 11 530 50
129 26 400 112 504 160 l59 27 -6 151 c-6 159 -25 287 -58 398 -25 85 -166
370 -222 449 l-42 61 1 96 c0 89 5 110 52 255 29 87 52 160 52 162 0 3 -369 5
-820 5 -451 0 -820 -4 -820 -8z"/>
<path d="M3700 1810 c0 -5 17 -54 39 -107 75 -191 111 -300 151 -463 93 -375
126 -480 207 -669 l19 -44 89 76 c50 41 128 114 174 161 l84 85 -17 103 c-26
153 -69 313 -135 503 -33 94 -67 214 -76 268 l-17 97 -259 0 c-162 0 -259 -4
-259 -10z"/>
</g>
</svg>
